<svg width="67" height="67" viewBox="0 0 67 67" fill="none" xmlns="http://www.w3.org/2000/svg">
<g filter="url(#filter0_d_31_150)">
<path d="M45.8974 29.1712L57.5272 17.9127C57.7351 17.7107 57.8568 17.4454 57.8844 17.1642C58.1636 17.1374 58.4363 17.0258 58.6498 16.8183C61.6882 13.8764 61.6882 9.08964 58.6498 6.14792C57.1782 4.72179 55.2213 3.93667 53.1394 3.93667C51.0572 3.93667 49.1004 4.7224 47.629 6.14792C47.4104 6.35959 47.2951 6.62984 47.2705 6.90544C46.9857 6.93105 46.7092 7.03788 46.5031 7.23784L34.8754 18.4989L18.6561 2.7945C18.1836 2.33581 17.3462 2.337 16.8737 2.7945L4.88852 14.4038C4.39654 14.8802 4.39654 15.6524 4.88852 16.129L21.1047 31.8334L10.5921 42.0128C10.4629 42.1379 10.3635 42.2878 10.3011 42.4538L6.41716 52.6617C5.62966 54.7254 6.34292 55.8386 6.83798 56.3181C7.17369 56.6438 7.81065 57.0665 8.85204 57.0665C9.34463 57.0665 9.92808 56.972 10.6122 56.7268L21.1301 52.9752C21.3046 52.9173 21.469 52.821 21.6083 52.6861C21.6089 52.6855 21.6095 52.6849 21.6095 52.6849L32.1253 42.5045L48.342 58.2065C48.5783 58.4352 48.899 58.5639 49.2329 58.5639C49.5674 58.5639 49.8881 58.4352 50.1243 58.2065L62.1111 46.5971C62.6031 46.1208 62.6031 45.3486 62.1111 44.872L45.8974 29.1712ZM53.1398 6.37706C54.5478 6.37706 55.872 6.90842 56.8681 7.87349C58.9238 9.86453 58.9238 13.1032 56.8681 15.0939C56.7863 15.1731 56.7225 15.2628 56.6684 15.3562L49.1404 8.06667C49.2368 8.01365 49.3295 7.9519 49.4113 7.87267C50.4065 6.908 51.731 6.37685 53.1396 6.37685L53.1398 6.37706ZM20.0648 27.3748L23.3069 24.235C23.7988 23.7586 23.7988 22.9858 23.3069 22.5093C22.8149 22.0335 22.0173 22.0329 21.5245 22.5093L18.2833 25.649L13.9155 21.4194L17.1556 18.2822C17.6476 17.8058 17.6476 17.0336 17.1556 16.557C16.6636 16.0806 15.8654 16.0806 15.3738 16.557L12.1338 19.6942L7.56116 15.2661L17.7651 5.38159L33.093 20.2234L22.8854 30.1074L20.0648 27.3748ZM20.7179 50.0963L16.5725 46.0818C16.0811 45.6054 15.2823 45.6054 14.7907 46.0818C14.2987 46.5582 14.2987 47.3304 14.7907 47.807L18.4345 51.3359L9.73949 54.4378C9.01824 54.6951 8.66649 54.6215 8.6257 54.5994C8.59043 54.547 8.51352 54.2067 8.78074 53.5063V53.5051L12.5689 43.5489L23.7535 32.7189C23.7617 32.7115 23.7712 32.706 23.7794 32.6988C23.7876 32.6915 23.7927 32.6817 23.8001 32.6738L35.7139 21.1366C35.7322 21.1208 35.7529 21.1092 35.7705 21.0916C35.7881 21.0745 35.8 21.0544 35.8171 21.0368L47.3933 9.827L54.853 17.0509L31.2774 39.8751C31.2622 39.8886 31.2446 39.8983 31.2296 39.9128C31.2144 39.9275 31.2044 39.944 31.1906 39.9585L20.7179 50.0963ZM49.2323 55.6178L44.6566 51.1879L47.8986 48.0488C48.3906 47.5724 48.3906 46.8002 47.8986 46.3236C47.4073 45.8472 46.6085 45.8472 46.1169 46.3236L42.8748 49.4627L38.5083 45.2342L41.751 42.0944C42.243 41.6181 42.243 40.8459 41.751 40.3693C41.2596 39.8929 40.4609 39.8929 39.9692 40.3693L36.7265 43.509L33.9061 40.7787L44.1147 30.8962L59.4368 45.734L49.2323 55.6178Z" fill="url(#paint0_linear_31_150)"/>
</g>
<defs>
<filter id="filter0_d_31_150" x="-2" y="0" width="71" height="69" filterUnits="userSpaceOnUse" color-interpolation-filters="sRGB">
<feFlood flood-opacity="0" result="BackgroundImageFix"/>
<feColorMatrix in="SourceAlpha" type="matrix" values="0 0 0 0 0 0 0 0 0 0 0 0 0 0 0 0 0 0 127 0" result="hardAlpha"/>
<feOffset dy="4"/>
<feGaussianBlur stdDeviation="2"/>
<feComposite in2="hardAlpha" operator="out"/>
<feColorMatrix type="matrix" values="0 0 0 0 0 0 0 0 0 0 0 0 0 0 0 0 0 0 0.25 0"/>
<feBlend mode="normal" in2="BackgroundImageFix" result="effect1_dropShadow_31_150"/>
<feBlend mode="normal" in="SourceGraphic" in2="effect1_dropShadow_31_150" result="shape"/>
</filter>
<linearGradient id="paint0_linear_31_150" x1="33.4998" y1="2.45093" x2="33.4998" y2="58.5639" gradientUnits="userSpaceOnUse">
<stop stop-color="#6D5BE0"/>
<stop offset="1" stop-color="#FF0E73"/>
</linearGradient>
</defs>
</svg>
