<svg width="63" height="61" viewBox="0 0 63 61" fill="none" xmlns="http://www.w3.org/2000/svg">
<path d="M43.8974 29.1712L55.5272 17.9127C55.7351 17.7107 55.8568 17.4454 55.8844 17.1642C56.1636 17.1374 56.4363 17.0258 56.6498 16.8183C59.6882 13.8764 59.6882 9.08964 56.6498 6.14792C55.1782 4.72179 53.2213 3.93667 51.1394 3.93667C49.0572 3.93667 47.1004 4.7224 45.629 6.14792C45.4104 6.35959 45.2951 6.62984 45.2705 6.90544C44.9857 6.93105 44.7092 7.03788 44.5031 7.23784L32.8754 18.4989L16.6561 2.7945C16.1836 2.33581 15.3462 2.337 14.8737 2.7945L2.88852 14.4038C2.39654 14.8802 2.39654 15.6524 2.88852 16.129L19.1047 31.8334L8.59212 42.0128C8.46292 42.1379 8.36345 42.2878 8.30111 42.4538L4.41716 52.6617C3.62966 54.7254 4.34292 55.8386 4.83798 56.3181C5.17369 56.6438 5.81065 57.0665 6.85204 57.0665C7.34463 57.0665 7.92808 56.972 8.6122 56.7268L19.1301 52.9752C19.3046 52.9173 19.469 52.821 19.6083 52.6861C19.6089 52.6855 19.6095 52.6849 19.6095 52.6849L30.1253 42.5045L46.342 58.2065C46.5783 58.4352 46.899 58.5639 47.2329 58.5639C47.5674 58.5639 47.8881 58.4352 48.1243 58.2065L60.1111 46.5971C60.6031 46.1208 60.6031 45.3486 60.1111 44.872L43.8974 29.1712ZM51.1398 6.37706C52.5478 6.37706 53.872 6.90842 54.8681 7.87349C56.9238 9.86453 56.9238 13.1032 54.8681 15.0939C54.7863 15.1731 54.7225 15.2628 54.6684 15.3562L47.1404 8.06667C47.2368 8.01365 47.3295 7.9519 47.4113 7.87267C48.4065 6.908 49.731 6.37685 51.1396 6.37685L51.1398 6.37706ZM18.0648 27.3748L21.3069 24.235C21.7988 23.7586 21.7988 22.9858 21.3069 22.5093C20.8149 22.0335 20.0173 22.0329 19.5245 22.5093L16.2833 25.649L11.9155 21.4194L15.1556 18.2822C15.6476 17.8058 15.6476 17.0336 15.1556 16.557C14.6636 16.0806 13.8654 16.0806 13.3738 16.557L10.1338 19.6942L5.56116 15.2661L15.7651 5.38159L31.093 20.2234L20.8854 30.1074L18.0648 27.3748ZM18.7179 50.0963L14.5725 46.0818C14.0811 45.6054 13.2823 45.6054 12.7907 46.0818C12.2987 46.5582 12.2987 47.3304 12.7907 47.807L16.4345 51.3359L7.73949 54.4378C7.01824 54.6951 6.66649 54.6215 6.6257 54.5994C6.59043 54.547 6.51352 54.2067 6.78074 53.5063V53.5051L10.5689 43.5489L21.7535 32.7189C21.7617 32.7115 21.7712 32.706 21.7794 32.6988C21.7876 32.6915 21.7927 32.6817 21.8001 32.6738L33.7139 21.1366C33.7322 21.1208 33.7529 21.1092 33.7705 21.0916C33.7881 21.0745 33.8 21.0544 33.8171 21.0368L45.3933 9.827L52.853 17.0509L29.2774 39.8751C29.2622 39.8886 29.2446 39.8983 29.2296 39.9128C29.2144 39.9275 29.2044 39.944 29.1906 39.9585L18.7179 50.0963ZM47.2322 55.6178L42.6566 51.1879L45.8986 48.0488C46.3906 47.5724 46.3906 46.8002 45.8986 46.3236C45.4073 45.8472 44.6085 45.8472 44.1169 46.3236L40.8748 49.4627L36.5083 45.2342L39.751 42.0944C40.243 41.6181 40.243 40.8459 39.751 40.3693C39.2596 39.8929 38.4609 39.8929 37.9693 40.3693L34.7265 43.509L31.9061 40.7787L42.1147 30.8962L57.4368 45.734L47.2322 55.6178Z" fill="url(#paint0_linear_31_150)"/>
<defs>
<linearGradient id="paint0_linear_31_150" x1="31.4998" y1="2.45093" x2="31.4998" y2="58.5639" gradientUnits="userSpaceOnUse">
<stop stop-color="#6D5BE0"/>
<stop offset="1" stop-color="#FF0E73"/>
</linearGradient>
</defs>
</svg>
