<svg width="36" height="35" viewBox="0 0 36 35" fill="none" xmlns="http://www.w3.org/2000/svg">
<path d="M7.092 20.7901L5.32797 28.2801C5.29199 28.3851 5.29199 28.525 5.29199 28.6301H8.74799L10.368 21.8051L7.19999 20.825C7.16402 20.825 7.12804 20.825 7.09194 20.79L7.092 20.7901Z" fill="#6D5BE0"/>
<path d="M19.7642 12.985C19.5842 12.25 18.7923 11.795 18.0362 11.97L15.6962 12.5649L13.8962 10.3249C13.8242 10.2549 13.7881 10.1849 13.7162 10.1149C13.2481 9.69496 12.6721 9.4149 12.0242 9.30985L9.36019 8.74999C8.56825 8.57499 7.74019 8.68004 6.98422 9.03004L3.81622 10.5C3.45622 10.675 3.16816 10.99 3.06025 11.375L2.08831 14.63C1.87233 15.365 2.30429 16.135 3.06025 16.345C3.20427 16.38 3.3122 16.415 3.45622 16.415C4.06816 16.415 4.64428 16.03 4.82428 15.3999L5.61622 12.74L7.12816 12.04L6.55219 17.36C6.48024 18.1299 6.94816 18.865 7.74025 19.11L12.4563 20.5799L12.5282 25.3399C12.5282 25.4099 12.5282 25.5149 12.5642 25.5849H15.9482C15.9482 25.4798 15.9842 25.3749 15.9842 25.3048L15.8761 19.3548C15.8761 18.6548 15.3721 18.0248 14.688 17.7798L11.7 16.8698L12.564 13.1948L14.004 15.0148C14.364 15.4698 14.94 15.6448 15.48 15.5048L18.72 14.6998C19.5122 14.455 19.9443 13.7199 19.7643 12.985L19.7642 12.985Z" fill="#6D5BE0"/>
<path d="M9.03606 30.03H4.96806C4.71611 30.03 4.5 30.24 4.5 30.4851V33.6701C4.5 33.915 4.71598 34.1251 4.96806 34.1251H9.07206C9.32401 34.1251 9.54012 33.9152 9.54012 33.6701V30.4851C9.50403 30.24 9.28805 30.03 9.03597 30.03H9.03606Z" fill="#6D5BE0"/>
<path d="M16.308 26.9501H12.24C11.9881 26.9501 11.772 27.16 11.772 27.4051V33.6701C11.772 33.9151 11.9879 34.1252 12.24 34.1252H16.344C16.596 34.1252 16.8121 33.9152 16.8121 33.6701L16.812 27.4051C16.776 27.1601 16.56 26.9501 16.3081 26.9501H16.308Z" fill="#6D5BE0"/>
<path d="M23.58 23.87H19.512C19.2601 23.87 19.0439 24.08 19.0439 24.3251V33.6701C19.0439 33.915 19.2599 34.1251 19.512 34.1251H23.616C23.868 34.1251 24.0841 33.9151 24.0841 33.6701V24.3251C24.0481 24.0801 23.832 23.87 23.58 23.87Z" fill="#6D5BE0"/>
<path d="M33.804 19.075L29.412 13.51C29.124 13.1251 28.512 13.1251 28.2239 13.51L23.8319 19.075C23.4719 19.5651 23.796 20.2301 24.4079 20.2301H26.2798V33.6701C26.2798 33.9151 26.4958 34.1252 26.7479 34.1252H30.8519C31.1039 34.1252 31.32 33.9152 31.32 33.6701V20.2651H33.1919C33.84 20.2651 34.164 19.5651 33.804 19.0751L33.804 19.075Z" fill="#6D5BE0"/>
<path d="M14.8324 5.35501C14.8324 6.95941 13.4947 8.25995 11.8445 8.25995C10.1943 8.25995 8.85645 6.95941 8.85645 5.35501C8.85645 3.75061 10.1943 2.44995 11.8445 2.44995C13.4947 2.44995 14.8324 3.75061 14.8324 5.35501Z" fill="#6D5BE0"/>
<path d="M24.9121 11.97C28.0441 11.97 30.6001 9.48506 30.6001 6.44003C30.6001 3.39503 28.0442 0.910034 24.9121 0.910034C21.7801 0.910148 19.2241 3.36015 19.2241 6.40533C19.2241 9.48533 21.7801 11.9703 24.9121 11.9703V11.97ZM22.1762 5.77503C22.5002 5.46001 23.0402 5.46001 23.3642 5.77503L24.2642 6.65003L26.5323 4.44498C26.8563 4.12995 27.3963 4.12995 27.7203 4.44498C28.0444 4.76 28.0444 5.28501 27.7203 5.60003L24.8402 8.36506C24.6962 8.50509 24.4802 8.61002 24.2642 8.61002C24.0483 8.61002 23.8323 8.54006 23.6883 8.36506L22.2123 6.93009C21.8522 6.61506 21.8522 6.09006 22.1762 5.77503H22.1762Z" fill="#6D5BE0"/>
</svg>
