<svg width="37" height="36" viewBox="0 0 37 36" fill="none" xmlns="http://www.w3.org/2000/svg">
<path d="M33.9165 1.5H3.08317C2.67451 1.50059 2.28271 1.65879 1.99364 1.93992C1.7047 2.22117 1.54209 2.60238 1.5415 3V4.5C1.54211 4.89762 1.7047 5.27883 1.99364 5.56008C2.28271 5.84121 2.67451 5.99943 3.08317 6V29.25C3.08317 29.4489 3.16435 29.6396 3.309 29.7803C3.45353 29.921 3.64962 30 3.85401 30H17.729V30.1383C17.0377 30.3761 16.5033 30.9188 16.2886 31.601C16.074 32.2832 16.2047 33.024 16.6407 33.5976C17.0768 34.1712 17.7666 34.5095 18.4998 34.5095C19.2331 34.5095 19.9229 34.1712 20.359 33.5976C20.795 33.024 20.9257 32.2832 20.7111 31.601C20.4964 30.9188 19.962 30.3761 19.2707 30.1383V30H33.1457C33.3501 30 33.5461 29.921 33.6907 29.7803C33.8353 29.6397 33.9165 29.4489 33.9165 29.25V6C34.3252 5.99941 34.717 5.84121 35.006 5.56008C35.295 5.27883 35.4576 4.89762 35.4582 4.5V3C35.4576 2.60238 35.295 2.22117 35.006 1.93992C34.717 1.65879 34.3252 1.50057 33.9165 1.5ZM18.4998 33C18.2954 33 18.0994 32.921 17.9548 32.7803C17.8102 32.6396 17.729 32.4489 17.729 32.25C17.729 32.0511 17.8102 31.8604 17.9548 31.7197C18.0994 31.579 18.2954 31.5 18.4998 31.5C18.7042 31.5 18.9003 31.579 19.0448 31.7197C19.1895 31.8603 19.2707 32.0511 19.2707 32.25C19.2706 32.4489 19.1893 32.6395 19.0447 32.7802C18.9002 32.9208 18.7042 32.9999 18.4998 33ZM32.3748 28.5H4.62484V6H32.3748V17.25V28.5ZM33.1457 4.5H3.08317V3H33.9165L33.9181 4.5H33.1457Z" fill="#6D5BE0"/>
<path d="M11.5622 25.5H25.2556C25.6644 25.4995 26.0562 25.3413 26.3453 25.0601C26.6342 24.779 26.7968 24.3976 26.7973 24V12.75C26.7974 12.551 26.7163 12.3603 26.5717 12.2195C26.4272 12.0789 26.2309 11.9999 26.0264 12H20.9485C20.744 11.9999 20.5478 12.0789 20.4032 12.2195C20.2586 12.3602 20.1775 12.551 20.1776 12.75V14.8234H15.8696C15.6651 14.8234 15.469 14.9025 15.3245 15.0431C15.1799 15.1838 15.0988 15.3745 15.0988 15.5734V19.0591H10.7913C10.587 19.0591 10.3909 19.1382 10.2463 19.2788C10.1017 19.4195 10.0205 19.6102 10.0205 19.8091V24.0001C10.0211 24.3977 10.1837 24.7789 10.4726 25.0602C10.7617 25.3413 11.1535 25.4995 11.5622 25.5001L11.5622 25.5ZM21.7193 13.5H25.2559L25.2575 24H21.7194L21.7192 13.5H21.7193ZM16.6405 16.3234H20.1777V24.0001H16.6405V16.3234ZM11.5622 20.5591H15.0988V24.0001H11.5622V20.5591Z" fill="#6D5BE0"/>
<path d="M10.7916 15.0001C10.9817 15.0001 15.2177 14.9469 19.4123 10.7539C19.5496 10.9636 19.7863 11.0918 20.0417 11.0949C20.2461 11.0949 20.4422 11.0159 20.5867 10.8753C20.7314 10.7345 20.8126 10.5438 20.8126 10.3449V9.00013C20.8126 8.80127 20.7314 8.61049 20.5867 8.46985C20.4422 8.32911 20.2461 8.25013 20.0417 8.25013H18.6596C18.4237 8.24919 18.2005 8.35384 18.0543 8.53396C17.908 8.71396 17.8548 8.9494 17.9101 9.17251C17.9655 9.39563 18.1232 9.58162 18.3377 9.67687C14.5998 13.4212 10.8292 13.5001 10.7918 13.5001C10.5165 13.5001 10.262 13.643 10.1242 13.8751C9.98658 14.1071 9.98658 14.393 10.1242 14.6251C10.262 14.8571 10.5165 15.0001 10.7918 15.0001L10.7916 15.0001Z" fill="#6D5BE0"/>
</svg>
