<svg width="34" height="37" viewBox="0 0 34 37" fill="none" xmlns="http://www.w3.org/2000/svg">
<path d="M16.4071 7.54345C15.6792 7.57311 14.9561 7.67549 14.2496 7.84882C11.5666 8.47783 9.21582 10.0432 7.64589 12.2467C6.07582 14.45 5.39607 17.1373 5.73631 19.796C6.0766 22.4548 7.41318 24.899 9.49108 26.6624C11.569 28.4257 14.2427 29.3854 17.0026 29.358H17.5982C18.3226 29.3289 19.0419 29.2266 19.7444 29.0526C22.4265 28.4237 24.7762 26.8592 26.3464 24.6567C27.9165 22.4545 28.5969 19.7687 28.2581 17.1107C27.9193 14.4528 26.5849 12.009 24.5094 10.2443C22.4337 8.47986 19.7619 7.51839 17.0029 7.54306L16.4071 7.54345ZM17.0027 27.5366C14.5202 27.5366 12.1392 26.5794 10.3839 24.8754C8.62837 23.1714 7.64218 20.8604 7.64218 18.4508C7.64218 16.0411 8.62837 13.7299 10.3839 12.0261C12.1393 10.3221 14.5202 9.36489 17.0027 9.36489C29.3636 9.834 29.4196 27.0674 17.0027 27.5366ZM20.3739 34.6808L20.8458 34.9753C21.121 35.1405 21.3096 35.4127 21.3632 35.7224C21.4168 36.0321 21.3303 36.3493 21.1258 36.5926C20.9213 36.836 20.6185 36.982 20.2952 36.9932C19.9019 37.135 16.7893 35.008 16.4073 34.8117C16.1234 34.6422 15.9317 34.3591 15.8839 34.0389C15.8361 33.7187 15.9373 33.3945 16.16 33.1538L17.7107 31.5395L18.4075 30.7869C18.6752 30.5049 19.0761 30.3802 19.4628 30.4584C19.8497 30.5366 20.1658 30.8063 20.2953 31.1687C20.3772 31.3501 20.4008 31.5514 20.3626 31.7462C20.3246 31.9408 20.2266 32.1197 20.0817 32.2594L19.7558 32.6193C33.9257 30.0016 36.2517 10.9793 22.9021 5.35108C22.6322 5.23399 22.4207 5.01836 22.3134 4.75082C22.2062 4.48329 22.2119 4.18561 22.3292 3.92217C22.4477 3.65809 22.6689 3.45038 22.9448 3.34404C23.2206 3.23782 23.5284 3.24178 23.8013 3.35503C39.0947 9.82287 36.5664 31.4305 20.3739 34.6808ZM11.6426 33.0774C11.5241 33.3415 11.3029 33.5492 11.027 33.6556C10.7512 33.7618 10.4434 33.7578 10.1705 33.6446C-5.08922 27.0786 -2.56087 5.47091 13.6317 2.22063L13.1597 1.92613C12.8861 1.70321 12.738 1.3673 12.7607 1.0213C12.7835 0.675294 12.9743 0.360475 13.2748 0.173076C13.5753 -0.0143097 13.9498 -0.0518877 14.2834 0.0718409L17.5984 2.08974C17.8823 2.25923 18.0739 2.54236 18.1217 2.86254C18.1695 3.18273 18.0682 3.507 17.8456 3.7477L16.2948 5.36195L15.5981 6.11456C15.3791 6.33786 15.0729 6.46069 14.7553 6.45264C14.5217 6.45098 14.2944 6.37863 14.1051 6.2457C13.9157 6.11277 13.7739 5.92589 13.6991 5.71102C13.6323 5.52632 13.618 5.32755 13.6575 5.1357C13.697 4.94384 13.789 4.76578 13.9239 4.6202L14.2498 4.26026C0.0795791 6.94346 -2.2465 25.9661 11.1033 31.6486C11.3733 31.7657 11.5849 31.9813 11.6922 32.2489C11.7994 32.5164 11.7937 32.8141 11.6764 33.0775L11.6426 33.0774ZM20.9469 17.5453C20.9194 15.5403 20.5079 13.5578 19.7333 11.6992C20.9774 12.1811 22.0658 12.9775 22.8859 14.0054C23.7059 15.0335 24.2275 16.2557 24.3967 17.5453H20.9469ZM14.2047 11.6988C13.4301 13.5576 13.0186 15.5402 12.9911 17.5451H9.57512C9.74433 16.2554 10.2659 15.0331 11.0859 14.0052C11.9061 12.9773 12.9944 12.1809 14.2385 11.699L14.2047 11.6988ZM12.9911 19.3339C13.0186 21.3388 13.4301 23.3215 14.2047 25.1804C12.9613 24.6974 11.8735 23.9008 11.0536 22.873C10.2337 21.8452 9.71158 20.6234 9.54134 19.3341L12.9911 19.3339ZM19.7333 25.1803C20.5079 23.3214 20.9194 21.3392 20.9469 19.334H24.3966C24.2331 20.6236 23.7178 21.8474 22.9038 22.8791C22.09 23.9107 21.007 24.7127 19.767 25.2021L19.7333 25.1803ZM17.0027 11.1753C17.5983 11.1753 18.9468 13.3568 19.1153 17.5453L14.9014 17.5451C15.07 13.3459 16.4071 11.1753 17.0027 11.1753ZM14.9014 19.3558H19.1153C18.9468 23.555 17.5983 25.7258 17.0027 25.7258C16.4071 25.7257 15.07 23.5551 14.9014 19.3558Z" fill="#6D5BE0"/>
</svg>
