<svg width="76" height="83" viewBox="0 0 76 83" fill="none" xmlns="http://www.w3.org/2000/svg">
<g filter="url(#filter0_d_31_193)">
<path d="M38.0004 8.22702C32.3986 8.229 26.9658 10.1436 22.6002 13.6541C18.2349 17.1644 15.1991 22.0604 13.9951 27.5311C12.7913 33.002 13.4917 38.7196 15.9805 43.7387C18.4691 48.7574 22.5969 52.7758 27.6801 55.1286V57.5862C27.2605 57.7033 26.8904 57.9541 26.6261 58.3007C26.3622 58.6473 26.2184 59.0706 26.2169 59.5063V65.1632C26.2184 65.6931 26.4297 66.201 26.8043 66.5756C27.1791 66.9504 27.687 67.1617 28.2169 67.1631H30.0474C30.4264 69.7281 32.0196 71.953 34.3258 73.138C36.6321 74.323 39.3683 74.323 41.6744 73.138C43.9806 71.953 45.5738 69.7281 45.9529 67.1631H47.7824C48.3126 67.1617 48.8205 66.9504 49.1951 66.5756C49.5699 66.201 49.7811 65.6931 49.7826 65.1632V59.507C49.7809 59.071 49.6371 58.6475 49.3727 58.3009C49.1082 57.9543 48.7379 57.7037 48.3178 57.5871V55.1285C53.402 52.7763 57.5303 48.7578 60.0199 43.7399C62.5092 38.7213 63.2101 33.003 62.0065 27.5323C60.8029 22.0611 57.7671 17.1646 53.4014 13.6547C49.0358 10.1441 43.6024 8.22955 38 8.22778L38.0004 8.22702ZM38.0004 71.6554C36.702 71.6536 35.4433 71.2073 34.4337 70.3912C33.4241 69.5747 32.7244 68.4375 32.4508 67.1681H43.5506C43.277 68.4375 42.5771 69.5747 41.5672 70.3912C40.5576 71.2076 39.2989 71.6537 38.0004 71.6554ZM47.4123 64.7926H28.589V59.8783H47.4117L47.4123 64.7926ZM46.6706 53.2627H46.6709C46.4569 53.3545 46.2748 53.5069 46.1466 53.7011C46.0187 53.8953 45.9507 54.1229 45.9507 54.3557V57.5028H30.0534V54.3557C30.0534 54.1229 29.9854 53.8953 29.8572 53.7011C29.7293 53.5069 29.5472 53.3545 29.3332 53.2627C24.6174 51.2633 20.7376 47.6948 18.3512 43.1623C15.9648 38.6298 15.2184 33.4115 16.2389 28.3917C17.2592 23.372 19.9833 18.8588 23.9498 15.6174C27.9163 12.376 32.881 10.6054 38.0034 10.6054C43.126 10.6054 48.0912 12.376 52.0571 15.6174C56.0236 18.8588 58.7476 23.3719 59.7679 28.3917C60.7882 33.4114 60.042 38.6296 57.6556 43.1623C55.269 47.6948 51.3894 51.2633 46.673 53.2627H46.6706ZM51.1178 25.1826L52.5841 22.3027L48.2824 18.0002L45.4064 19.4665H45.4067C44.3461 18.866 43.2157 18.3975 42.0411 18.0714L41.0403 15.0057H34.9603L33.9628 18.0744V18.0747C32.7879 18.4002 31.6574 18.8685 30.5963 19.469L27.7163 18.0042L23.4163 22.3059L24.8826 25.1858C24.281 26.2467 23.8119 27.3773 23.4858 28.5521L20.4171 29.5482V35.6282L23.4858 36.6257V36.6259C23.8116 37.8008 24.2799 38.9316 24.8804 39.993L23.4148 42.8729L27.7165 47.1747L30.5965 45.7084H30.5962C31.6571 46.3095 32.7877 46.7784 33.9628 47.1044L34.9603 50.1699H41.0403L42.037 47.1012C43.2124 46.7756 44.3433 46.3066 45.4043 45.7051L48.2843 47.1714L52.586 42.8697L51.1204 39.9898H51.1202C51.7209 38.9287 52.1894 37.7983 52.5155 36.6235L55.5852 35.626V29.546L52.5155 28.5499C52.1897 27.3743 51.7211 26.2432 51.1202 25.1818L51.1178 25.1826ZM53.2083 33.9024L50.5172 34.7784L50.3668 35.4335V35.4338C50.0513 36.809 49.5073 38.1217 48.7572 39.3168L48.4005 39.8864L49.6805 42.4095L47.8228 44.2712L45.2996 42.9848L44.7291 43.3433H44.7293C43.5349 44.0946 42.2222 44.6392 40.8467 44.9536L40.1916 45.104L39.3156 47.7952H36.6835L35.8107 45.104L35.1539 44.9536H35.1541C33.7786 44.6387 32.4659 44.0944 31.2708 43.344L30.7003 42.9848L28.1771 44.272L26.3154 42.4103L27.6003 39.8871L27.2429 39.3176C26.493 38.1225 25.949 36.8097 25.6341 35.4345L25.4837 34.7794L22.7925 33.9034V31.2704L25.4837 30.3993L25.6341 29.7442C25.9488 28.3686 26.4928 27.0562 27.2436 25.8618L27.6011 25.2913L26.3154 22.7681L28.1771 20.9064L30.7003 22.1911L31.2698 21.8336H31.27C32.4654 21.0837 33.7783 20.54 35.1541 20.2248L35.811 20.0744L36.6838 17.384H39.3165L40.1901 20.0737L40.8469 20.2249H40.8467C42.2222 20.54 43.5348 21.084 44.73 21.8344L45.2995 22.1912L47.8227 20.9064L49.6804 22.7649L48.4004 25.2881L48.7564 25.8576C49.5065 27.0528 50.0508 28.3655 50.3659 29.7409L50.5163 30.3961L53.2075 31.2704L53.2083 33.9024ZM38.0007 21.9026C35.168 21.9023 32.4512 23.0275 30.4476 25.0304C28.4442 27.0331 27.3186 29.7498 27.3183 32.5829C27.3178 35.4156 28.4427 38.1325 30.4454 40.1361C32.448 42.1395 35.1647 43.2654 37.9972 43.2659C40.8302 43.2666 43.5471 42.142 45.551 40.1393C47.5547 38.1369 48.6806 35.4205 48.6816 32.5874C48.6781 29.7557 47.5517 27.0408 45.5496 25.0381C43.5474 23.0357 40.8325 21.9093 38.0009 21.9056L38.0007 21.9026ZM38.0007 40.8912C35.7972 40.8914 33.6839 40.0166 32.1256 38.4586C30.5674 36.9007 29.6919 34.7874 29.6919 32.5839C29.6919 30.3803 30.5674 28.2673 32.1256 26.7092C33.6839 25.1513 35.7972 24.2763 38.0007 24.2768C40.2043 24.2771 42.3173 25.1531 43.8749 26.7114C45.4325 28.27 46.3073 30.3835 46.3063 32.587C46.3029 34.7889 45.4268 36.8997 43.87 38.4568C42.3134 40.0139 40.2026 40.8904 38.0007 40.8944V40.8912ZM42.816 29.571C43.0184 29.8122 43.1169 30.1239 43.0896 30.4379C43.0627 30.7516 42.912 31.0418 42.6711 31.2446L37.3181 35.7423H37.3184C37.0908 35.9333 36.7996 36.0323 36.5027 36.0194C36.2058 36.0065 35.9245 35.8828 35.7143 35.6726L33.2552 33.2134C32.96 32.9124 32.8467 32.4774 32.957 32.0707C33.0676 31.6637 33.3853 31.3459 33.7923 31.2355C34.199 31.1249 34.6339 31.2384 34.9353 31.5333L36.624 33.2221L41.1431 29.4253V29.4255C41.3846 29.2237 41.6963 29.1262 42.01 29.1539C42.3235 29.1819 42.6129 29.333 42.8151 29.5742L42.816 29.571ZM36.816 6.16299V3.15592C36.816 2.73188 37.0423 2.33974 37.4095 2.12777C37.7768 1.91574 38.2293 1.91574 38.5967 2.12777C38.9641 2.33979 39.1902 2.73191 39.1902 3.15592V6.16622C39.1902 6.5905 38.9641 6.98239 38.5967 7.19437C38.2293 7.40664 37.7769 7.40664 37.4095 7.19437C37.0423 6.98235 36.816 6.59047 36.816 6.16622V6.16299ZM15.3175 13.0429C15.0911 12.821 14.9627 12.5177 14.961 12.2005C14.9595 11.8833 15.0847 11.5788 15.309 11.3544C15.5332 11.1303 15.8377 11.0049 16.1549 11.0066C16.472 11.0081 16.7756 11.1365 16.9975 11.3628L19.1256 13.491H19.1254C19.4205 13.792 19.5341 14.227 19.4235 14.6339C19.3129 15.0407 18.9953 15.3585 18.5883 15.4689C18.1815 15.5795 17.7466 15.4662 17.4455 15.1711L15.3175 13.0429ZM11.3015 34.0518C11.3017 34.3668 11.1768 34.6691 10.9541 34.8918C10.7315 35.1147 10.4294 35.2398 10.1142 35.2398H7.10538C6.78525 35.2482 6.47502 35.1268 6.24569 34.9031C6.01611 34.6795 5.88672 34.3727 5.88672 34.0523C5.88672 33.7317 6.01611 33.4249 6.24569 33.2012C6.47503 32.9776 6.78526 32.8564 7.10538 32.8645H10.1142C10.4292 32.8645 10.7312 32.9897 10.9536 33.2124C11.1763 33.435 11.3015 33.7369 11.3015 34.0518ZM19.1213 52.9321C19.3444 53.1548 19.4696 53.4571 19.4696 53.7721C19.4696 54.0872 19.3444 54.3895 19.1213 54.6122L16.9941 56.7393C16.6931 57.0345 16.2581 57.1478 15.8512 57.0375C15.4444 56.9269 15.1266 56.609 15.0162 56.2022C14.9056 55.7952 15.0189 55.3603 15.314 55.0592L17.4422 52.9321C17.6648 52.7097 17.9666 52.5848 18.2813 52.5848C18.596 52.5848 18.8978 52.7097 19.1205 52.9321H19.1213ZM56.8812 15.1722C56.6586 14.9495 56.5334 14.6472 56.5334 14.3322C56.5334 14.017 56.6586 13.715 56.8812 13.492L59.0083 11.3639L59.0086 11.3642C59.2305 11.1376 59.5338 11.0092 59.851 11.0077C60.1681 11.0059 60.4727 11.1314 60.697 11.3555C60.9212 11.5799 61.0466 11.8844 61.0449 12.2016C61.0434 12.5187 60.915 12.8221 60.6884 13.044L58.5603 15.1721H58.5605C58.3376 15.3948 58.0355 15.5197 57.7203 15.5197C57.4054 15.5197 57.1033 15.3948 56.8804 15.1721L56.8812 15.1722ZM70.0805 34.0525C70.0805 34.3676 69.9553 34.6697 69.7324 34.8926C69.5098 35.1153 69.2075 35.2405 68.8925 35.2405H65.8852C65.4683 35.2296 65.0876 35.001 64.8822 34.6381C64.6767 34.2749 64.6767 33.8308 64.8822 33.4679C65.0876 33.1047 65.4683 32.8761 65.8852 32.8652H68.8957C69.2099 32.8662 69.5113 32.9916 69.7335 33.214C69.9554 33.4367 70.0803 33.738 70.0805 34.0525ZM60.685 55.0589C60.9851 55.359 61.1024 55.7964 60.9925 56.2063C60.8827 56.6162 60.5626 56.9366 60.1526 57.0464C59.7427 57.1563 59.3053 57.039 59.0052 56.7389L56.8803 54.6116C56.5852 54.3105 56.4719 53.8756 56.5822 53.4688C56.6928 53.0619 57.0107 52.7442 57.4174 52.6336C57.8244 52.5233 58.2593 52.6366 58.5604 52.9317L60.685 55.0589Z" fill="url(#paint0_linear_31_193)"/>
</g>
<defs>
<filter id="filter0_d_31_193" x="-4" y="0" width="84" height="84" filterUnits="userSpaceOnUse" color-interpolation-filters="sRGB">
<feFlood flood-opacity="0" result="BackgroundImageFix"/>
<feColorMatrix in="SourceAlpha" type="matrix" values="0 0 0 0 0 0 0 0 0 0 0 0 0 0 0 0 0 0 127 0" result="hardAlpha"/>
<feOffset dy="4"/>
<feGaussianBlur stdDeviation="2"/>
<feComposite in2="hardAlpha" operator="out"/>
<feColorMatrix type="matrix" values="0 0 0 0 0 0 0 0 0 0 0 0 0 0 0 0 0 0 0.25 0"/>
<feBlend mode="normal" in2="BackgroundImageFix" result="effect1_dropShadow_31_193"/>
<feBlend mode="normal" in="SourceGraphic" in2="effect1_dropShadow_31_193" result="shape"/>
</filter>
<linearGradient id="paint0_linear_31_193" x1="37.9836" y1="1.96875" x2="37.9836" y2="74.0268" gradientUnits="userSpaceOnUse">
<stop stop-color="#0EF5B5"/>
<stop offset="1" stop-color="#4200FF"/>
</linearGradient>
</defs>
</svg>
