<svg width="83" height="82" viewBox="0 0 83 82" fill="none" xmlns="http://www.w3.org/2000/svg">
<path d="M53.2792 51.3518C56.0596 47.7077 57.69 43.3766 57.9736 38.7846C56.79 40.7361 54.7417 42.0908 52.3446 42.3532C51.4914 45.3545 49.8846 48.1094 47.5905 50.3741C44.0698 53.8544 39.388 55.7714 34.4053 55.7714C29.4225 55.7714 24.7392 53.8543 21.2152 50.3725C13.9458 43.1893 13.9458 31.4995 21.2152 24.3163C24.7378 20.8361 29.4204 18.9191 34.4025 18.9191C39.3841 18.9191 44.0672 20.8362 47.5898 24.3163C48.6189 25.333 49.4938 26.4549 50.2441 27.6438C50.6623 27.5733 51.0873 27.5258 51.5207 27.5258C51.8195 27.5258 52.1167 27.544 52.412 27.5784L54.7494 25.5039C53.7451 23.8279 52.545 22.2516 51.1141 20.8364C46.652 16.428 40.7176 13.9976 34.4062 13.9976C28.095 13.9976 22.1623 16.4263 17.6983 20.8364C8.48665 29.9384 8.48665 44.7476 17.6983 53.8496C22.1603 58.2595 28.0968 60.6904 34.4096 60.6904C39.5987 60.6904 44.519 59.0242 48.5895 55.9901L59.7744 67.0417C60.4218 67.6828 61.2717 68.0026 62.1218 68.0026C62.9718 68.0026 63.8199 67.6828 64.4692 67.0417C65.7655 65.761 65.7655 63.6829 64.4692 62.4038L53.2792 51.3518Z" fill="url(#paint0_linear_100_170)"/>
<path d="M67.9887 16.1915C65.6549 16.1915 63.7641 18.0611 63.7641 20.367C63.7641 20.836 63.8603 21.2789 64.0049 21.7004L53.2944 31.2021C52.7532 30.9544 52.1556 30.8052 51.5199 30.8052C50.3778 30.8052 49.3471 31.2563 48.5868 31.9845L40.6624 28.693C40.6475 26.3988 38.7632 24.5439 36.4394 24.5439C34.1056 24.5439 32.2148 26.4134 32.2148 28.7194C32.2148 29.6264 32.5153 30.4595 33.0116 31.1449L28.5704 38.3753C28.3777 38.3475 28.1853 38.3163 27.9843 38.3163C25.6505 38.3163 23.7598 40.1858 23.7598 42.4918C23.7598 44.7975 25.6521 46.6673 27.9843 46.6673C30.3182 46.6673 32.2108 44.7978 32.2108 42.4918C32.2108 41.5848 31.9103 40.7517 31.414 40.0662L35.8511 32.8325C36.0438 32.8602 36.2345 32.8915 36.4355 32.8915C37.5776 32.8915 38.6083 32.4404 39.3686 31.7122L47.293 35.0037C47.3063 37.2963 49.1922 39.1528 51.516 39.1528C53.8518 39.1528 55.7425 37.2833 55.7425 34.9773C55.7425 34.5099 55.6463 34.0654 55.5017 33.644L66.2122 24.1422C66.7534 24.3899 67.351 24.5391 67.9851 24.5391C70.3189 24.5391 72.2116 22.6696 72.2116 20.3636C72.2116 18.0579 70.3225 16.1915 67.9886 16.1915H67.9887Z" fill="url(#paint1_linear_100_170)"/>
<defs>
<linearGradient id="paint0_linear_100_170" x1="11.8694" y1="13.9976" x2="68.5059" y2="17.4294" gradientUnits="userSpaceOnUse">
<stop stop-color="#6D5BE0"/>
<stop offset="1" stop-color="#FF0E73"/>
</linearGradient>
<linearGradient id="paint1_linear_100_170" x1="24.7171" y1="16.1915" x2="74.6601" y2="20.9459" gradientUnits="userSpaceOnUse">
<stop stop-color="#6D5BE0"/>
<stop offset="1" stop-color="#FF0E73"/>
</linearGradient>
</defs>
</svg>
