<svg width="73" height="72" viewBox="0 0 73 72" fill="none" xmlns="http://www.w3.org/2000/svg">
<path fill-rule="evenodd" clip-rule="evenodd" d="M15.061 12.5052H7.52197V55.038H28.9317V54.1286H8.4436V19.0382L15.061 12.5052ZM30.6867 42.1206H65.4779V62.1288H30.6867V42.1206ZM48.1745 25.9956H65.4779V37.7868H48.1745V25.9956ZM48.1745 9.86997H65.4779V21.6606H48.1745V9.86938V9.86997ZM43.6238 9.86997V40.3914H28.9314V52.401H10.1977V20.6208H20.22C20.4529 20.6215 20.6763 20.5305 20.8409 20.3681C21.0056 20.2059 21.0981 19.9856 21.0976 19.7559V9.86914L43.6238 9.86997ZM16.7099 29.5908C16.473 29.5976 16.2432 29.5097 16.0731 29.3468C15.9032 29.1839 15.8072 28.9601 15.8072 28.7264C15.8072 28.4925 15.9032 28.2687 16.0731 28.1058C16.2432 27.9431 16.473 27.855 16.7099 27.862H31.9C32.1369 27.855 32.3667 27.9431 32.5366 28.1058C32.7068 28.2686 32.8028 28.4925 32.8028 28.7264C32.8028 28.9601 32.7068 29.1839 32.5366 29.3468C32.3667 29.5097 32.1369 29.5976 31.9 29.5908H16.7099ZM16.7867 26.2439C16.5498 26.2507 16.32 26.1628 16.1501 25.9999C15.9799 25.837 15.8839 25.6132 15.8839 25.3795C15.8839 25.1456 15.9799 24.9218 16.1501 24.7589C16.32 24.5962 16.5498 24.5081 16.7867 24.5151H24.5216C24.7586 24.5081 24.9884 24.5962 25.1585 24.7589C25.3284 24.9218 25.4244 25.1456 25.4244 25.3795C25.4244 25.6132 25.3284 25.837 25.1585 25.9999C24.9884 26.1628 24.7586 26.2507 24.5216 26.2439H16.7867ZM19.3431 10.7327L19.3433 18.8921H11.0755L19.3431 10.7327Z" fill="url(#paint0_linear_100_166)"/>
<defs>
<linearGradient id="paint0_linear_100_166" x1="9.86212" y1="9.86916" x2="68.7517" y2="13.8637" gradientUnits="userSpaceOnUse">
<stop stop-color="#6A0EFF"/>
<stop offset="1" stop-color="#D942FF"/>
</linearGradient>
</defs>
</svg>
