<svg width="76" height="76" viewBox="0 0 76 76" fill="none" xmlns="http://www.w3.org/2000/svg">
<path d="M14.9645 45.1591C13.2493 45.1631 11.6029 44.484 10.3894 43.272C9.17595 42.0597 8.49511 40.4143 8.49707 38.6991C8.49905 36.9839 9.18411 35.34 10.4006 34.1307C11.6167 32.9214 13.2647 32.2463 14.9799 32.2545C16.6951 32.2626 18.3365 32.9534 19.5416 34.174C20.7464 35.3947 21.4159 37.0448 21.4017 38.76C21.3896 40.4601 20.7063 42.0865 19.5007 43.2851C18.2949 44.4835 16.6646 45.1572 14.9645 45.1591ZM14.9645 35.2791C14.0625 35.2754 13.1958 35.6287 12.5536 36.2621C11.9116 36.8954 11.5463 37.7573 11.5376 38.6591C11.5292 39.5611 11.878 40.4295 12.5078 41.075C13.1377 41.7204 13.9976 42.0903 14.8994 42.1036C15.8012 42.117 16.6718 41.7729 17.3205 41.1462C17.9691 40.5198 18.3434 39.6618 18.3617 38.7601C18.3758 37.8484 18.0248 36.9692 17.3865 36.318C16.7483 35.6671 15.8762 35.2985 14.9645 35.2945L14.9645 35.2791Z" fill="url(#paint0_linear_31_179)"/>
<path d="M23.332 58.4059H6.61204C6.12021 58.4059 5.64867 58.2104 5.30084 57.8628C4.95301 57.515 4.75781 57.0432 4.75781 56.5516V54.849C4.76771 52.2319 5.812 49.7247 7.66247 47.8741C9.51326 46.0234 12.0204 44.9794 14.638 44.9692H15.2916C17.9118 44.9692 20.4248 46.0103 22.2779 47.863C24.1307 49.716 25.1717 52.2291 25.1717 54.8493V56.5746C25.1657 57.0598 24.9698 57.5234 24.6259 57.8658C24.282 58.2082 23.8176 58.4022 23.3323 58.4061L23.332 58.4059ZM7.79004 55.3659H22.1464V54.8263C22.1464 53.0121 21.4258 51.2725 20.143 49.9897C18.8603 48.707 17.1206 47.9863 15.3064 47.9863H14.6528C12.8387 47.9863 11.099 48.707 9.81626 49.9897C8.5335 51.2725 7.81283 53.0122 7.81283 54.8263L7.79004 55.3659Z" fill="url(#paint1_linear_31_179)"/>
<path d="M37.4752 34.2987C35.7622 34.3029 34.1181 33.6255 32.9048 32.416C31.6916 31.2067 31.009 29.5646 31.0078 27.8516C31.0063 26.1383 31.6864 24.4952 32.8977 23.2839C34.1089 22.0727 35.7521 21.3926 37.4651 21.394C39.1783 21.3953 40.8205 22.0779 42.0298 23.2911C43.2393 24.5043 43.9164 26.1485 43.9125 27.8617C43.9105 29.5682 43.2317 31.2043 42.0248 32.4111C40.818 33.6179 39.182 34.2967 37.4752 34.2987ZM37.4752 24.4187C36.5703 24.4148 35.7006 24.7705 35.0579 25.4075C34.4152 26.0446 34.0517 26.9109 34.0478 27.8159C34.0439 28.7209 34.3994 29.5905 35.0364 30.2332C35.6736 30.8762 36.5398 31.2394 37.445 31.2436C38.35 31.2475 39.2194 30.8918 39.8623 30.2548C40.505 29.6177 40.8685 28.7514 40.8724 27.8464C40.8724 26.9439 40.5149 26.0782 39.8784 25.4387C39.2416 24.7992 38.3777 24.438 37.4752 24.434V24.4187Z" fill="url(#paint2_linear_31_179)"/>
<path d="M45.8508 47.5455H29.1308C28.639 47.5455 28.1672 47.3503 27.8196 47.0025C27.4718 46.6546 27.2764 46.1831 27.2764 45.6913V43.9887C27.2865 41.3715 28.3306 38.8644 30.1813 37.0138C32.0318 35.163 34.5392 34.119 37.1562 34.1089H37.8098C40.4302 34.1089 42.9433 35.15 44.7961 37.0026C46.6488 38.8557 47.6898 41.3687 47.6898 43.9889V45.7143C47.6859 46.2002 47.4904 46.6648 47.1463 47.0077C46.8019 47.3506 46.3366 47.5438 45.8507 47.5458L45.8508 47.5455ZM30.3012 44.5055H44.6576V43.9659C44.6576 42.1518 43.937 40.4121 42.6542 39.1294C41.3715 37.8466 39.6315 37.1259 37.8176 37.1259H37.164C35.3499 37.1259 33.6102 37.8466 32.3275 39.1294C31.0447 40.4121 30.324 42.1518 30.324 43.9659L30.3012 44.5055Z" fill="url(#paint3_linear_31_179)"/>
<path d="M59.994 23.4384C58.2808 23.4426 56.6366 22.7652 55.4234 21.5557C54.2102 20.3464 53.5276 18.7042 53.5264 16.9912C53.5251 15.278 54.205 13.6348 55.4162 12.4236C56.6275 11.2123 58.2707 10.5325 59.9839 10.5337C61.6969 10.5349 63.3391 11.2175 64.5483 12.4307C65.7579 13.6439 66.4352 15.2881 66.4312 17.0014C66.429 18.7079 65.7501 20.3442 64.5436 21.5507C63.3368 22.7575 61.7005 23.4363 59.994 23.4384H59.994ZM59.994 13.5584C59.0891 13.5544 58.2194 13.9102 57.5767 14.5472C56.9338 15.1843 56.5705 16.0506 56.5664 16.9556C56.5624 17.8605 56.9182 18.7302 57.5552 19.3729C58.1923 20.0158 59.0586 20.379 59.9636 20.3832C60.8685 20.3872 61.7382 20.0317 62.3809 19.3944C63.0236 18.7573 63.3871 17.891 63.3912 16.986C63.3893 16.0843 63.031 15.2199 62.3947 14.5806C61.7587 13.9416 60.8958 13.5796 59.994 13.5738V13.5584Z" fill="url(#paint4_linear_31_179)"/>
<path d="M68.3997 36.6852H51.6797C51.1878 36.6852 50.716 36.49 50.3685 36.1421C50.0206 35.7943 49.8252 35.3227 49.8252 34.8309V33.1283C49.8353 30.5112 50.8794 28.004 52.7301 26.1534C54.5809 24.3027 57.088 23.2587 59.705 23.2485H60.3663C62.9867 23.2485 65.4998 24.2896 67.3526 26.1423C69.2053 27.9953 70.2463 30.5084 70.2463 33.1286V34.8539C70.2424 35.341 70.0459 35.8069 69.7001 36.15C69.3542 36.4929 68.8866 36.6857 68.3995 36.6854L68.3997 36.6852ZM52.8501 33.6452H67.1685V33.1056C67.1685 31.2917 66.4478 29.5518 65.165 28.269C63.8823 26.9863 62.1426 26.2656 60.3285 26.2656H59.6672H59.6675C57.8533 26.2656 56.1136 26.9863 54.8309 28.269C53.5481 29.5518 52.8275 31.2917 52.8275 33.1056L52.8501 33.6452Z" fill="url(#paint5_linear_31_179)"/>
<path d="M28.7736 65.4677H4.72715C4.18411 65.4677 3.68215 65.178 3.41076 64.7077C3.13912 64.2374 3.13912 63.658 3.41076 63.1877C3.68216 62.7174 4.18413 62.4277 4.72715 62.4277H27.2535V53.0265C27.2535 52.6235 27.4136 52.2368 27.6986 51.9518C27.9839 51.6668 28.3703 51.5065 28.7736 51.5065H49.5444V42.6221C49.5444 42.2188 49.7044 41.8324 49.9894 41.5471C50.2744 41.2621 50.6611 41.1021 51.0644 41.1021H70.5204C71.0634 41.1021 71.5651 41.3918 71.8368 41.8621C72.1082 42.3324 72.1082 42.9117 71.8368 43.3821C71.5651 43.8524 71.0634 44.1421 70.5204 44.1421H52.5844V53.0265C52.5844 53.4297 52.4241 53.8164 52.1391 54.1014C51.8541 54.3864 51.4674 54.5465 51.0644 54.5465H30.2936V63.9477C30.2936 64.3509 30.1335 64.7374 29.8483 65.0226C29.5633 65.3076 29.1766 65.4677 28.7736 65.4677Z" fill="url(#paint6_linear_31_179)"/>
<path d="M67.8366 47.6443C67.4363 47.6445 67.0519 47.4869 66.7671 47.2059C66.4821 46.9246 66.3198 46.5422 66.3151 46.1418C66.3104 45.7416 66.4638 45.3556 66.7421 45.0679L69.1589 42.5979L66.6889 40.2115C66.3371 39.8315 66.203 39.2989 66.3327 38.7976C66.4626 38.2967 66.8384 37.8959 67.3302 37.7346C67.822 37.573 68.3623 37.673 68.7639 37.9998L72.3283 41.4349H72.3281C72.6136 41.7201 72.7739 42.107 72.7739 42.5103C72.7739 42.9138 72.6136 43.3007 72.3281 43.5857L68.9308 47.1806C68.6441 47.4772 68.249 47.6445 67.8366 47.6442L67.8366 47.6443Z" fill="url(#paint7_linear_31_179)"/>
<defs>
<linearGradient id="paint0_linear_31_179" x1="14.9495" y1="32.2544" x2="14.9495" y2="45.1592" gradientUnits="userSpaceOnUse">
<stop offset="1" stop-color="#8A2FFF"/>
</linearGradient>
<linearGradient id="paint1_linear_31_179" x1="14.9647" y1="44.9692" x2="14.9647" y2="58.4061" gradientUnits="userSpaceOnUse">
<stop stop-color="#8A2FFF"/>
<stop offset="1" stop-color="#FF0E73"/>
</linearGradient>
<linearGradient id="paint2_linear_31_179" x1="37.4602" y1="21.394" x2="37.4602" y2="34.2987" gradientUnits="userSpaceOnUse">
<stop offset="1" stop-color="#8A2FFF"/>
</linearGradient>
<linearGradient id="paint3_linear_31_179" x1="37.4831" y1="34.1089" x2="37.4831" y2="47.5458" gradientUnits="userSpaceOnUse">
<stop stop-color="#8A2FFF"/>
<stop offset="1" stop-color="#FF0E73"/>
</linearGradient>
<linearGradient id="paint4_linear_31_179" x1="59.9788" y1="10.5337" x2="59.9788" y2="23.4384" gradientUnits="userSpaceOnUse">
<stop offset="1" stop-color="#8A2FFF"/>
</linearGradient>
<linearGradient id="paint5_linear_31_179" x1="60.0358" y1="23.2485" x2="60.0358" y2="36.6854" gradientUnits="userSpaceOnUse">
<stop stop-color="#8A2FFF"/>
<stop offset="1" stop-color="#FF0E73"/>
</linearGradient>
<linearGradient id="paint6_linear_31_179" x1="37.6237" y1="41.1021" x2="37.6237" y2="65.4677" gradientUnits="userSpaceOnUse">
<stop stop-color="#8A2FFF"/>
<stop offset="1" stop-color="#FF0E73"/>
</linearGradient>
<linearGradient id="paint7_linear_31_179" x1="69.529" y1="37.6587" x2="69.529" y2="47.6443" gradientUnits="userSpaceOnUse">
<stop stop-color="#8A2FFF"/>
<stop offset="1" stop-color="#FF0E73"/>
</linearGradient>
</defs>
</svg>
