<svg width="100" height="94" viewBox="0 0 100 94" fill="none" xmlns="http://www.w3.org/2000/svg">
<path d="M69.0042 22.1942L75.8017 10.9463C76.3033 10.1162 77.593 9.91484 78.3092 10.297L78.3668 10.3279C79.2499 10.7994 79.5592 11.8548 79.0575 12.685L72.26 23.9329C71.7584 24.763 70.4687 24.9644 69.7525 24.5822L69.6949 24.5513C68.8117 24.0797 68.5025 23.0244 69.0042 22.1942Z" fill="#6D5BE0"/>
<path d="M48.9208 15.1834L48.982 15.1595C50.6054 14.5273 52.594 15.5411 53.139 16.7782L72.1298 59.8764C72.8023 61.4023 72.0312 63.1517 70.4078 63.7839L70.3466 63.8078C68.7233 64.44 66.7346 63.4262 66.1897 62.1891L47.1988 19.0909C46.5263 17.565 47.2975 15.8156 48.9208 15.1834Z" fill="#6D5BE0"/>
<path d="M50.3642 62.7583C42.8727 62.5328 35.3817 62.2938 27.8917 62.042H27.892C27.8321 62.0402 27.7787 62.0056 27.7553 61.9539L20.2019 44.8004C20.17 44.7291 20.1862 44.6468 20.2429 44.5908L44.6046 20.1767C44.6306 20.1501 44.6697 20.1378 44.7074 20.1443C44.7455 20.1504 44.7774 20.1746 44.7921 20.2079L63.6354 62.9779C63.6507 63.014 63.6458 63.055 63.622 63.0868C63.5986 63.1187 63.5595 63.137 63.5182 63.1361C59.0689 63.014 54.684 62.8879 50.364 62.7582L50.3642 62.7583Z" fill="#6D5BE0"/>
<path d="M77.9467 30.4709L92.43 24.8315C93.3694 24.4659 94.5199 25.0521 94.8353 25.7682L94.859 25.8223C95.248 26.7054 94.8021 27.7176 93.8626 28.0833L79.3793 33.7226C78.4399 34.0883 77.2895 33.502 76.974 32.786L76.9503 32.7318C76.5613 31.8488 77.0072 30.8366 77.9467 30.4709Z" fill="#6D5BE0"/>
<path d="M70.8117 42.0149C70.5285 42.3913 70.1567 42.7012 69.7251 42.9203C69.0538 43.2735 68.3533 43.5755 67.6303 43.8227C67.5437 43.8518 67.4487 43.812 67.4132 43.7328L61.9685 31.3546C61.9282 31.2658 61.9708 31.1627 62.0642 31.1232C62.5763 30.9041 63.1182 30.689 63.6902 30.4785H63.6906C64.7114 30.0471 65.8963 30.137 66.8306 30.7172C67.4253 31.1153 67.9279 31.6226 68.3078 32.2089C69.5122 33.9346 70.4341 35.8211 71.0419 37.8045C71.3059 38.6607 71.4162 39.5521 71.3684 40.4422C71.3472 41.0058 71.1539 41.5514 70.8117 42.0146L70.8117 42.0149Z" fill="#6D5BE0"/>
<path d="M77.9958 43.3755L78.0157 43.3082C78.2869 42.3894 79.4841 41.8992 80.2768 42.1056L93.5268 45.5597C94.5043 45.8146 95.0772 46.7662 94.8061 47.6851L94.7863 47.7524C94.5151 48.6713 93.3178 49.1615 92.5252 48.955L79.2752 45.501C78.2977 45.2461 77.7248 44.2945 77.9958 43.3755Z" fill="#6D5BE0"/>
<path d="M9.43417 64.9203C9.19785 64.7884 9.01588 64.5852 8.91855 64.3435L8.84237 64.1452C7.60604 61.3812 6.38337 58.6123 5.17404 55.838C5.0396 55.5929 4.97938 55.3172 5.00054 55.0421C5.0217 54.7667 5.12327 54.5023 5.29416 54.2778C6.13724 52.824 6.99341 51.377 7.86216 49.937H7.86183C8.03729 49.6117 8.32342 49.3513 8.67466 49.1965C11.6245 48.027 14.593 46.859 17.5805 45.6932V45.6935C17.6052 45.6837 17.6329 45.6837 17.6576 45.6935C17.6821 45.703 17.7016 45.7216 17.7117 45.7446L25.2465 62.8667C25.282 62.9499 25.2403 63.0445 25.1528 63.08C22.3572 64.1907 19.5284 65.2941 16.6678 66.3902H16.6674C16.2602 66.5729 15.8003 66.6252 15.3582 66.5389C13.5408 66.0808 11.6714 65.586 9.74943 65.0546V65.0549C9.63843 65.0243 9.53231 64.979 9.43466 64.9202L9.43417 64.9203Z" fill="#6D5BE0"/>
<path d="M25.72 83.895C25.5787 83.8525 25.4645 83.754 25.4075 83.6252L18.5074 67.9851C18.4895 67.9441 18.4895 67.8979 18.5081 67.8569C18.5263 67.8159 18.5611 67.7835 18.6051 67.7667L25.9671 64.8998C26.0013 64.8864 26.0394 64.886 26.0735 64.8992C26.1077 64.9124 26.1347 64.9375 26.149 64.9696L33.0475 80.6598C33.1223 80.7806 33.1328 80.9272 33.0761 81.0566C33.0195 81.1857 32.902 81.2831 32.7584 81.3192C30.6295 82.1714 28.5292 82.9889 26.4582 83.7717C26.4517 83.7741 26.3847 83.8057 26.2567 83.8656H26.2571C26.0894 83.9427 25.8961 83.9538 25.72 83.8956L25.72 83.895Z" fill="#6D5BE0"/>
</svg>
