<svg width="39" height="36" viewBox="0 0 39 36" fill="none" xmlns="http://www.w3.org/2000/svg">
<path d="M15.8749 21.353L10.3037 26.4761V29.7686H31.9568V28.7625L28.4881 25.5612L24.2313 27.8021L15.8749 21.353Z" fill="#6D5BE0"/>
<path d="M27.3985 20.8506C27.3985 22.265 26.1563 23.4116 24.624 23.4116C23.0917 23.4116 21.8496 22.265 21.8496 20.8506C21.8496 19.4361 23.0917 18.2896 24.624 18.2896C26.1563 18.2896 27.3985 19.4361 27.3985 20.8506Z" fill="#6D5BE0"/>
<path d="M33.5631 13.4862H18.4723V13.5164C16.3729 13.5164 14.5259 14.5266 13.4673 16.0472H33.2439V31.6382L8.46915 31.6383V18.0447C8.19303 16.6087 7.31121 15.3645 6.07569 14.5458C5.8355 14.8961 5.69434 15.3094 5.69434 15.7537V31.9336C5.69434 33.1839 6.79602 34.2004 8.1501 34.2004H33.5628C34.9169 34.2004 36.0186 33.1838 36.0186 31.9336V15.7534C36.0186 14.5035 34.9168 13.4864 33.5627 13.4864L33.5631 13.4862Z" fill="#6D5BE0"/>
<path d="M10.5457 18.7002C10.5457 14.6586 14.0954 11.382 18.4738 11.382C14.0954 11.382 10.5457 8.10574 10.5457 4.06384C10.5457 8.10544 6.99608 11.382 2.61768 11.382C6.99575 11.3824 10.5457 14.6589 10.5457 18.7002Z" fill="#6D5BE0"/>
<path d="M19.9501 10.8326C19.9501 8.63446 21.8806 6.85285 24.2619 6.85285C21.8809 6.85285 19.9501 5.07091 19.9501 2.87305C19.9501 5.07091 18.02 6.85285 15.6387 6.85285C18.02 6.85285 19.9501 8.63446 19.9501 10.8326Z" fill="#6D5BE0"/>
<path d="M27.0452 6.93838C27.0452 5.51959 28.2912 4.36903 29.8286 4.36903C28.2916 4.36903 27.0452 3.21883 27.0452 1.79968C27.0452 3.21847 25.7991 4.36903 24.2617 4.36903C25.7987 4.36938 27.0452 5.51959 27.0452 6.93838Z" fill="#6D5BE0"/>
</svg>
