<svg width="56" height="58" viewBox="0 0 56 58" fill="none" xmlns="http://www.w3.org/2000/svg">
<path d="M52.0156 0.000659613C51.5339 -0.00843277 51.0503 0.0765096 50.586 0.253328L32.9442 6.9838C32.2424 7.2525 31.8775 8.07245 32.1301 8.819C32.3827 9.56555 33.1536 9.95358 33.8555 9.68493L47.826 4.35593V45.6624L18.8876 34.6228V15.3968L24.7335 13.1663C25.4354 12.8976 25.8002 12.0777 25.5476 11.3311C25.295 10.5845 24.5218 10.1965 23.8222 10.4652L17.3026 12.9528H6.74883C3.02785 12.9528 0 16.1731 0 20.1311V29.8936C0 33.8513 3.02767 37.0718 6.74883 37.0718H6.88066L13.478 56.0222C13.8906 57.2051 14.9639 58 16.1474 58H22.9112C23.8421 58 24.7167 57.5152 25.2478 56.7022C25.7791 55.8892 25.9042 54.8485 25.5803 53.9204L20.0841 38.1356L50.5837 49.7724C51.0264 49.9423 51.4885 50.0251 51.9485 50.0251C52.7734 50.0251 53.5898 49.7585 54.2809 49.2417C55.3564 48.4354 56 47.1194 56 45.7204V4.31464C56 2.91587 55.3586 1.59728 54.2809 0.793334C53.6071 0.290392 52.8166 0.0238745 52.0133 0.00997008L52.0156 0.000659613ZM9.75923 37.0691H16.8386L23.0519 54.9145C23.0584 54.9329 23.0777 54.9925 23.0345 55.0593C22.9914 55.1258 22.9331 55.1258 22.9135 55.1258H16.1497C16.0872 55.1258 16.0332 55.0844 16.0116 55.0224L9.75923 37.0691Z" fill="url(#paint0_linear_46_61)"/>
<defs>
<linearGradient id="paint0_linear_46_61" x1="28" y1="0" x2="28" y2="58" gradientUnits="userSpaceOnUse">
<stop offset="0.40625" stop-color="#C55BE0"/>
<stop offset="1" stop-color="#3347FF"/>
</linearGradient>
</defs>
</svg>
