<svg width="95" height="94" viewBox="0 0 95 94" fill="none" xmlns="http://www.w3.org/2000/svg">
<path fill-rule="evenodd" clip-rule="evenodd" d="M28.8042 59.3327V71.6663C28.8042 72.3472 28.246 72.8983 27.5579 72.8983H22.5722C21.8842 72.8983 21.3257 72.3472 21.3257 71.6663V59.3327C21.3257 58.6519 21.8842 58.099 22.5722 58.099H27.5579C28.246 58.099 28.8042 58.6519 28.8042 59.3327Z" fill="url(#paint0_linear_100_158)"/>
<path fill-rule="evenodd" clip-rule="evenodd" d="M43.7612 59.3327V71.6663C43.7612 72.3472 43.2027 72.8983 42.515 72.8983H37.5293C36.8412 72.8983 36.2827 72.3472 36.2827 71.6663V59.3327C36.2827 58.6519 36.8412 58.099 37.5293 58.099H42.515C43.2027 58.099 43.7612 58.6519 43.7612 59.3327Z" fill="url(#paint1_linear_100_158)"/>
<path fill-rule="evenodd" clip-rule="evenodd" d="M58.7178 49.4667V71.6656C58.7178 71.9924 58.587 72.3069 58.3526 72.5383C58.1194 72.7693 57.8015 72.8987 57.4712 72.8987H52.4855C52.1552 72.8987 51.8373 72.7693 51.6045 72.5383C51.3701 72.307 51.2393 71.9924 51.2393 71.6656V49.4667C51.2393 49.1399 51.3701 48.8256 51.6045 48.5943C51.8373 48.363 52.1552 48.2335 52.4855 48.2335H57.4712C57.8015 48.2335 58.1194 48.363 58.3526 48.5943C58.587 48.8256 58.7178 49.1399 58.7178 49.4667Z" fill="url(#paint2_linear_100_158)"/>
<path fill-rule="evenodd" clip-rule="evenodd" d="M73.674 42.0673V71.6679C73.674 72.3494 73.1158 72.8983 72.4277 72.8983H67.442C66.754 72.8983 66.1958 72.3494 66.1958 71.6679V42.0673C66.1958 41.3859 66.754 40.8326 67.442 40.8326H72.4277C73.1158 40.8326 73.674 41.3859 73.674 42.0673Z" fill="url(#paint3_linear_100_158)"/>
<path fill-rule="evenodd" clip-rule="evenodd" d="M69.4196 28.5008L54.9788 42.7896L50.8745 38.7285C50.3884 38.2462 49.5982 38.2462 49.1121 38.7285L34.5201 53.1669H22.5722C21.8842 53.1669 21.3257 53.7192 21.3257 54.4C21.3257 55.0808 21.8842 55.6334 22.5722 55.6334H35.0362C35.3665 55.6334 35.6844 55.504 35.9173 55.272L49.9931 41.3444L54.0978 45.4055C54.5839 45.8877 55.374 45.8877 55.8602 45.4055L71.1821 30.2449V37.1342C71.1821 37.8147 71.7406 38.3673 72.4286 38.3673C73.1167 38.3673 73.6749 37.8147 73.6749 37.1342V27.2681C73.6749 26.5873 73.1167 26.0347 72.4286 26.0347H62.4576C61.7695 26.0347 61.2114 26.5873 61.2114 27.2681C61.2114 27.9489 61.7696 28.5012 62.4576 28.5012L69.4196 28.5008Z" fill="url(#paint4_linear_100_158)"/>
<path fill-rule="evenodd" clip-rule="evenodd" d="M32.5431 21.1014C38.7339 21.1014 43.761 26.0753 43.761 32.2013C43.761 38.3269 38.7343 43.3011 32.5431 43.3011C26.352 43.3011 21.3252 38.3273 21.3252 32.2013C21.3252 26.0754 26.352 21.1014 32.5431 21.1014ZM31.2966 26.0346H30.0503C27.9849 26.0346 26.311 27.691 26.311 29.7346C26.311 31.778 27.9849 33.4343 30.0503 33.4343H35.036C35.7238 33.4343 36.2822 33.9869 36.2822 34.6678C36.2822 35.3483 35.7237 35.9009 35.036 35.9009H30.0503C29.3622 35.9009 28.8038 35.3483 28.8038 34.6678C28.8038 33.9869 28.2456 33.4343 27.5575 33.4343C26.8695 33.4343 26.311 33.9869 26.311 34.6678C26.311 36.7112 27.9849 38.3674 30.0503 38.3674H31.2966V39.6009C31.2966 40.2814 31.8551 40.834 32.5431 40.834C33.2312 40.834 33.7894 40.2814 33.7894 39.6009V38.3674H35.0359C37.1011 38.3674 38.775 36.7111 38.775 34.6678C38.775 32.624 37.101 30.9678 35.0359 30.9678H30.0502C29.3622 30.9678 28.8037 30.4154 28.8037 29.7346C28.8037 29.0538 29.3622 28.5012 30.0502 28.5012H35.0359C35.7237 28.5012 36.2822 29.0538 36.2822 29.7346C36.2822 30.4155 36.8407 30.9678 37.5287 30.9678C38.2165 30.9678 38.775 30.4154 38.775 29.7346C38.775 27.6909 37.101 26.0346 35.0359 26.0346H33.7894V24.8015C33.7894 24.1207 33.2312 23.5681 32.5431 23.5681C31.855 23.5681 31.2966 24.1207 31.2966 24.8015V26.0346Z" fill="url(#paint5_linear_100_158)"/>
<defs>
<linearGradient id="paint0_linear_100_158" x1="21.3257" y1="58.099" x2="29.2361" y2="58.3336" gradientUnits="userSpaceOnUse">
<stop stop-color="#55EFC4"/>
<stop offset="1" stop-color="#0E6EFF"/>
</linearGradient>
<linearGradient id="paint1_linear_100_158" x1="36.2827" y1="58.099" x2="44.1932" y2="58.3336" gradientUnits="userSpaceOnUse">
<stop stop-color="#55EFC4"/>
<stop offset="1" stop-color="#0E6EFF"/>
</linearGradient>
<linearGradient id="paint2_linear_100_158" x1="51.2393" y1="48.2335" x2="59.1542" y2="48.3744" gradientUnits="userSpaceOnUse">
<stop stop-color="#55EFC4"/>
<stop offset="1" stop-color="#0E6EFF"/>
</linearGradient>
<linearGradient id="paint3_linear_100_158" x1="66.1958" y1="40.8326" x2="74.1114" y2="40.941" gradientUnits="userSpaceOnUse">
<stop stop-color="#55EFC4"/>
<stop offset="1" stop-color="#0E6EFF"/>
</linearGradient>
<linearGradient id="paint4_linear_100_158" x1="21.3257" y1="26.0347" x2="76.1566" y2="31.7265" gradientUnits="userSpaceOnUse">
<stop stop-color="#55EFC4"/>
<stop offset="1" stop-color="#0E6EFF"/>
</linearGradient>
<linearGradient id="paint5_linear_100_158" x1="21.3252" y1="21.1014" x2="44.9946" y2="22.5055" gradientUnits="userSpaceOnUse">
<stop stop-color="#55EFC4"/>
<stop offset="1" stop-color="#0E6EFF"/>
</linearGradient>
</defs>
</svg>
