<svg width="61" height="62" viewBox="0 0 61 62" fill="none" xmlns="http://www.w3.org/2000/svg">
<path fill-rule="evenodd" clip-rule="evenodd" d="M2.41504 59.024H45.8882V61.9997H2.41504V59.024ZM11.6799 52.6008L19.5469 50.9842L49.383 20.6559L51.3826 22.6883L21.2938 53.2584C20.5641 54.0927 6.31477 56.631 4.12995 57.0793C3.14546 57.2993 2.23977 56.4173 2.44473 55.3928C2.87721 53.2206 5.44308 38.7045 6.15119 37.9838L36.2643 7.32115L38.2572 9.34663L8.44697 39.6993L6.85584 47.6967L11.6799 52.6008ZM37.975 5.579L53.0954 20.9478L57.3151 16.6596C58.8479 15.101 58.8487 12.5503 57.3151 10.9918L47.7702 1.29035C46.2366 -0.268741 43.7277 -0.268741 42.1938 1.29035L37.975 5.579ZM14.6018 41.8252C12.7271 43.7302 15.5619 46.6102 17.4358 44.7057L45.2401 16.445L42.4061 13.5646L14.6018 41.8252Z" fill="url(#paint0_linear_39_892)"/>
<defs>
<linearGradient id="paint0_linear_39_892" x1="30.44" y1="0.121033" x2="30.44" y2="61.9997" gradientUnits="userSpaceOnUse">
<stop stop-color="#6764FF"/>
<stop offset="1" stop-color="#18D29E"/>
</linearGradient>
</defs>
</svg>
